[Header]
FileType HTR
DataType HTRS
FileVersion 1
NumSegments 64
NumFrames 4
DataFrameRate 24
EulerRotationOrder ZYX
CalibrationUnits mm
RotationUnits Degrees
GlobalAxisofGravity Y
BoneLengthAxis Y
ScaleFactor 1.0
[SegmentNames&Hierarchy]
Hips	GLOBAL
Spine	Hips
Spine1	Spine
Spine2	Spine1
Neck	Spine2
Head	Neck
LeftEye	Head
RightEye	Head
LeftShoulder	Spine2
LeftArm	LeftShoulder
LeftForeArm	LeftArm
LeftHand	LeftForeArm
LeftHandThumb1	LeftHand
LeftHandThumb2	LeftHandThumb1
LeftHandThumb3	LeftHandThumb2
LeftHandThumb4	LeftHandThumb3
LeftHandIndex1	LeftHand
LeftHandIndex2	LeftHandIndex1
LeftHandIndex3	LeftHandIndex2
LeftHandIndex4	LeftHandIndex3
LeftHandMiddle1	LeftHand
LeftHandMiddle2	LeftHandMiddle1
LeftHandMiddle3	LeftHandMiddle2
LeftHandMiddle4	LeftHandMiddle3
LeftHandRing1	LeftHand
LeftHandRing2	LeftHandRing1
LeftHandRing3	LeftHandRing2
LeftHandRing4	LeftHandRing3
LeftHandPinky1	LeftHand
LeftHandPinky2	LeftHandPinky1
LeftHandPinky3	LeftHandPinky2
LeftHandPinky4	LeftHandPinky3
RightShoulder	Spine2
RightArm	RightShoulder
RightForeArm	RightArm
RightHand	RightForeArm
RightHandPinky1	RightHand
RightHandPinky2	RightHandPinky1
RightHandPinky3	RightHandPinky2
RightHandPinky4	RightHandPinky3
RightHandRing1	RightHand
RightHandRing2	RightHandRing1
RightHandRing3	RightHandRing2
RightHandRing4	RightHandRing3
RightHandMiddle1	RightHand
RightHandMiddle2	RightHandMiddle1
RightHandMiddle3	RightHandMiddle2
RightHandMiddle4	RightHandMiddle3
RightHandIndex1	RightHand
RightHandIndex2	RightHandIndex1
RightHandIndex3	RightHandIndex2
RightHandIndex4	RightHandIndex3
RightHandThumb1	RightHand
RightHandThumb2	RightHandThumb1
RightHandThumb3	RightHandThumb2
RightHandThumb4	RightHandThumb3
LeftUpLeg	Hips
LeftLeg	LeftUpLeg
LeftFoot	LeftLeg
LeftToeBase	LeftFoot
RightUpLeg	Hips
RightLeg	RightUpLeg
RightFoot	RightLeg
RightToeBase	RightFoot
[BasePosition]
Hips	0	0	0	0	0	0	1
Spine	0	0	0	0	0	0	1
Spine1	0	0	0	0	0	0	1
Spine2	0	0	0	0	0	0	1
Neck	0	0	0	0	0	0	1
Head	0	0	0	0	0	0	1
LeftEye	0	0	0	0	0	0	1
RightEye	0	0	0	0	0	0	1
LeftShoulder	0	0	0	0	0	0	1
LeftArm	0	0	0	0	0	0	1
LeftForeArm	0	0	0	0	0	0	1
LeftHand	0	0	0	0	0	0	1
LeftHandThumb1	0	0	0	0	0	0	1
LeftHandThumb2	0	0	0	0	0	0	1
LeftHandThumb3	0	0	0	0	0	0	1
LeftHandThumb4	0	0	0	0	0	0	1
LeftHandIndex1	0	0	0	0	0	0	1
LeftHandIndex2	0	0	0	0	0	0	1
LeftHandIndex3	0	0	0	0	0	0	1
LeftHandIndex4	0	0	0	0	0	0	1
LeftHandMiddle1	0	0	0	0	0	0	1
LeftHandMiddle2	0	0	0	0	0	0	1
LeftHandMiddle3	0	0	0	0	0	0	1
LeftHandMiddle4	0	0	0	0	0	0	1
LeftHandRing1	0	0	0	0	0	0	1
LeftHandRing2	0	0	0	0	0	0	1
LeftHandRing3	0	0	0	0	0	0	1
LeftHandRing4	0	0	0	0	0	0	1
LeftHandPinky1	0	0	0	0	0	0	1
LeftHandPinky2	0	0	0	0	0	0	1
LeftHandPinky3	0	0	0	0	0	0	1
LeftHandPinky4	0	0	0	0	0	0	1
RightShoulder	0	0	0	0	0	0	1
RightArm	0	0	0	0	0	0	1
RightForeArm	0	0	0	0	0	0	1
RightHand	0	0	0	0	0	0	1
RightHandPinky1	0	0	0	0	0	0	1
RightHandPinky2	0	0	0	0	0	0	1
RightHandPinky3	0	0	0	0	0	0	1
RightHandPinky4	0	0	0	0	0	0	1
RightHandRing1	0	0	0	0	0	0	1
RightHandRing2	0	0	0	0	0	0	1
RightHandRing3	0	0	0	0	0	0	1
RightHandRing4	0	0	0	0	0	0	1
RightHandMiddle1	0	0	0	0	0	0	1
RightHandMiddle2	0	0	0	0	0	0	1
RightHandMiddle3	0	0	0	0	0	0	1
RightHandMiddle4	0	0	0	0	0	0	1
RightHandIndex1	0	0	0	0	0	0	1
RightHandIndex2	0	0	0	0	0	0	1
RightHandIndex3	0	0	0	0	0	0	1
RightHandIndex4	0	0	0	0	0	0	1
RightHandThumb1	0	0	0	0	0	0	1
RightHandThumb2	0	0	0	0	0	0	1
RightHandThumb3	0	0	0	0	0	0	1
RightHandThumb4	0	0	0	0	0	0	1
LeftUpLeg	0	0	0	0	0	0	1
LeftLeg	0	0	0	0	0	0	1
LeftFoot	0	0	0	0	0	0	1
LeftToeBase	0	0	0	0	0	0	1
RightUpLeg	0	0	0	0	0	0	1
RightLeg	0	0	0	0	0	0	1
RightFoot	0	0	0	0	0	0	1
RightToeBase	0	0	0	0	0	0	1
[Hips]
144	-37.04166031	970.5280151	219.2139893	5.864931107	-64.83699036	-374.1642761	1.0
145	-69.97880554	994.9729004	194.1381226	5.478536129	-51.91496658	-373.9013062	1.0
146	-103.7044678	1010.669312	171.0616455	5.066760063	-40.04634857	-372.915863	1.0
147	-140.7266846	1012.947144	150.6492767	5.13192749	-29.76520729	-372.8018188	1.0
[Spine]
144	0	101.8159943	1.315000057	14.31478786	4.599766731	13.84272003	1.0
145	0	101.8159943	1.315000057	12.92892933	6.329856873	13.86558914	1.0
146	0	101.8159943	1.315000057	10.42420959	8.0551157	12.66977692	1.0
147	0	101.8159943	1.315000057	8.532010078	9.244357109	12.28671455	1.0
[Spine1]
144	0	100.8349991	-10.00800037	-1.846817613	1.059194684	-10.27354908	1.0
145	0	100.8349991	-10.00800037	-1.564269781	1.261505127	-10.21382046	1.0
146	0	100.8349991	-10.00800037	-0.2243998945	1.502605796	-9.101899147	1.0
147	0	100.8349991	-10.00800037	0.8671559095	1.659705877	-7.831949234	1.0
[Spine2]
144	0	91	-13.73399925	-1.645813704	0.8947315812	-10.31896687	1.0
145	0	91	-13.73399925	-1.338099599	1.125605345	-10.25754166	1.0
146	0	91	-13.73399925	-0.006726369262	1.395233989	-9.118757248	1.0
147	0	91	-13.73399925	1.067204475	1.57137537	-7.823410511	1.0
[Neck]
144	0	166.7169952	-25.16200066	4.654601574	4.549346924	5.270258904	1.0
145	0	166.7169952	-25.16200066	5.250668526	3.838513136	6.270255566	1.0
146	0	166.7169952	-25.16200066	5.179610252	3.456428528	5.984189034	1.0
147	0	166.7169952	-25.16200066	4.94535017	3.407092571	5.279094696	1.0
[Head]
144	0	96.17900085	16.84999847	4.009526253	29.43252373	6.223806381	1.0
145	0	96.17900085	16.84999847	3.720152378	27.19297028	7.587594986	1.0
146	0	96.17900085	16.84999847	2.007608414	24.91000938	6.639387608	1.0
147	0	96.17900085	16.84999847	0.4285854399	23.75955391	5.185445786	1.0
[LeftEye]
144	30.6760006	64.09500122	92.83599854	0	0	0	1.0
145	30.6760006	64.09500122	92.83599854	0	0	0	1.0
146	30.6760006	64.09500122	92.83599854	0	0	0	1.0
147	30.6760006	64.09500122	92.83599854	0	0	0	1.0
[RightEye]
144	-30.6760006	64.09500122	92.83499908	0	0	0	1.0
145	-30.6760006	64.09500122	92.83499908	0	0	0	1.0
146	-30.6760006	64.09500122	92.83499908	0	0	0	1.0
147	-30.6760006	64.09500122	92.83499908	0	0	0	1.0
[LeftShoulder]
144	45.70400238	109.4599991	-26.28000069	-1.381085157	9.02075386	-18.29966927	1.0
145	45.70400238	109.4599991	-26.28000069	-1.075933456	8.899393082	-12.77569771	1.0
146	45.70400238	109.4599991	-26.28000069	-0.5293228626	6.617359638	-9.565615654	1.0
147	45.70400238	109.4599991	-26.28000069	-0.3443620205	5.891334057	-6.701593876	1.0
[LeftArm]
144	105.923996	-5.24600029	-22.32099915	37.68227386	44.0641861	-31.44631958	1.0
145	105.923996	-5.24600029	-22.32099915	26.5555191	54.45813751	-32.47545624	1.0
146	105.923996	-5.24600029	-22.32099915	17.75788307	59.69706345	-30.56857681	1.0
147	105.923996	-5.24600029	-22.32099915	15.48042965	60.03100204	-24.65014648	1.0
[LeftForeArm]
144	278.414978	-0.0009999999311	0	-1.68346196e-05	-41.76738358	-0.0002040532272	1.0
145	278.414978	-0.0009999999311	0	9.695819244e-06	-42.7612381	-0.0002076483506	1.0
146	278.414978	-0.0009999999311	0	1.151935339e-05	-43.04792023	-0.0002159113355	1.0
147	278.414978	-0.0009999999311	0	2.888394374e-05	-43.68360138	-0.0002373920142	1.0
[LeftHand]
144	283.2879944	0	0	-3.926422119	33.55759048	3.848591328	1.0
145	283.2879944	0	0	-4.318831444	37.77833939	2.40060997	1.0
146	283.2879944	0	0	-6.979783058	39.85784912	1.392653346	1.0
147	283.2879944	0	0	-10.48832989	39.65188599	-0.1609250307	1.0
[LeftHandThumb1]
144	24.6609993	-15.75	26.8239994	-0.6667882204	8.232707024	9.683367729	1.0
145	24.6609993	-15.75	26.8239994	-0.3409461975	6.860862732	7.866882801	1.0
146	24.6609993	-15.75	26.8239994	-0.217080012	5.679708004	6.393030643	1.0
147	24.6609993	-15.75	26.8239994	-0.2191706002	4.92713213	5.469277382	1.0
[LeftHandThumb2]
144	32.29800034	-18.64699936	18.64699936	1.296161413	-0.23361215	-1.009253025	1.0
145	32.29800034	-18.64699936	18.64699936	1.204349995	-0.1621127278	-1.059455276	1.0
146	32.29800034	-18.64699936	18.64699936	1.168237209	-0.1330956817	-1.078849316	1.0
147	32.29800034	-18.64699936	18.64699936	1.170304418	-0.1407669485	-1.077425957	1.0
[LeftHandThumb3]
144	26.52600098	-15.31499958	15.31499958	-3.75230217	-3.434836864	3.517319202	1.0
145	26.52600098	-15.31499958	15.31499958	-4.197296619	-4.104345322	3.680011749	1.0
146	26.52600098	-15.31499958	15.31499958	-4.333662033	-4.302780151	3.730528831	1.0
147	26.52600098	-15.31499958	15.31499958	-4.257431984	-4.180027962	3.700623512	1.0
[LeftHandThumb4]
144	19.54599953	-11.28499985	11.28499985	0	0	0	1.0
145	19.54599953	-11.28499985	11.28499985	0	0	0	1.0
146	19.54599953	-11.28499985	11.28499985	0	0	0	1.0
147	19.54599953	-11.28499985	11.28499985	0	0	0	1.0
[LeftHandIndex1]
144	91.09299469	-5.170999527	22.60099792	-0.3098124266	-6.057979107	17.69727135	1.0
145	91.09299469	-5.170999527	22.60099792	-0.1879447103	-5.170202255	13.87045956	1.0
146	91.09299469	-5.170999527	22.60099792	-0.1176996082	-4.336769581	11.03346348	1.0
147	91.09299469	-5.170999527	22.60099792	-0.08851785958	-3.611611128	9.51858902	1.0
[LeftHandIndex2]
144	36.76399994	0	0	-0.001085622702	0.1223194599	-1.017501235	1.0
145	36.76399994	0	0	-0.002181827556	0.1723681688	-1.43383491	1.0
146	36.76399994	0	0	-0.002382141538	0.18096596	-1.505461335	1.0
147	36.76399994	0	0	-0.001706504263	0.1533574462	-1.275618792	1.0
[LeftHandIndex3]
144	28.83100128	0	0	-0.08686073124	1.090377808	-9.109110832	1.0
145	28.83100128	0	0	-0.09818483889	1.158860683	-9.686705589	1.0
146	28.83100128	0	0	-0.1050570235	1.198369622	-10.02037334	1.0
147	28.83100128	0	0	-0.1059228256	1.203185678	-10.06113911	1.0
[LeftHandIndex4]
144	23.92700005	0	0	0	0	0	1.0
145	23.92700005	0	0	0	0	0	1.0
146	23.92700005	0	0	0	0	0	1.0
147	23.92700005	0	0	0	0	0	1.0
[LeftHandMiddle1]
144	95.33399963	0	0	8.850077575e-05	2.588955879	3.147788763	1.0
145	95.33399963	0	0	0.006573284511	3.648949623	-2.488841057	1.0
146	95.33399963	0	0	-0.03112257645	4.591621876	-6.72478056	1.0
147	95.33399963	0	0	-0.06403696537	5.26224947	-8.917603493	1.0
[LeftHandMiddle2]
144	36.98199844	0	0	-3.997901331e-06	-7.014078437e-05	2.112437141e-05	1.0
145	36.98199844	0	0	-1.224680545e-05	-6.578640023e-05	-2.570821925e-05	1.0
146	36.98199844	0	0	-1.393680122e-05	-6.821788702e-05	-3.647013955e-06	1.0
147	36.98199844	0	0	6.904731435e-06	-7.140478556e-05	-7.135845408e-06	1.0
[LeftHandMiddle3]
144	29.50900078	0	0	-0.06289288402	0.9286525846	-7.748650551	1.0
145	29.50900078	0	0	-0.07931860536	1.042265654	-8.703813553	1.0
146	29.50900078	0	0	-0.09085480124	1.114998698	-9.316643715	1.0
147	29.50900078	0	0	-0.09411456436	1.134706736	-9.482738495	1.0
[LeftHandMiddle4]
144	28.3390007	0	0	0	0	0	1.0
145	28.3390007	0	0	0	0	0	1.0
146	28.3390007	0	0	0	0	0	1.0
147	28.3390007	0	0	0	0	0	1.0
[LeftHandRing1]
144	91.04499817	-0.4390000105	-18.65100098	0.07461393625	11.4970026	-6.596646309	1.0
145	91.04499817	-0.4390000105	-18.65100098	-0.1229995638	12.94265747	-15.45066166	1.0
146	91.04499817	-0.4390000105	-18.65100098	-0.3773381114	14.16980839	-22.16418457	1.0
147	91.04499817	-0.4390000105	-18.65100098	-0.5402756929	14.90976238	-25.60029221	1.0
[LeftHandRing2]
144	31.54000092	0	0	6.235060823e-07	-2.571733376e-06	1.687413896e-05	1.0
145	31.54000092	0	0	-0.002921823645	0.2009442449	-1.671600699	1.0
146	31.54000092	0	0	-0.009063801728	0.3532544971	-2.939605951	1.0
147	31.54000092	0	0	-0.01041393075	0.3786513209	-3.151201248	1.0
[LeftHandRing3]
144	29.37700081	0	0	-0.06902316213	0.9726336002	-8.118171692	1.0
145	29.37700081	0	0	-0.07833596319	1.035857797	-8.649875641	1.0
146	29.37700081	0	0	-0.08487559855	1.077966213	-9.004370689	1.0
147	29.37700081	0	0	-0.0871251449	1.09203577	-9.123010635	1.0
[LeftHandRing4]
144	26.47500038	0	0	0	0	0	1.0
145	26.47500038	0	0	0	0	0	1.0
146	26.47500038	0	0	0	0	0	1.0
147	26.47500038	0	0	0	0	0	1.0
[LeftHandPinky1]
144	80.77799988	-4.887000084	-38.06099701	0.5161379576	26.44647789	-12.85549831	1.0
145	80.77799988	-4.887000084	-38.06099701	-0.09803445637	28.54521942	-27.11443138	1.0
146	80.77799988	-4.887000084	-38.06099701	-0.8491871357	30.22742653	-38.06240082	1.0
147	80.77799988	-4.887000084	-38.06099701	-1.320849895	31.12393761	-43.67298889	1.0
[LeftHandPinky2]
144	36	0	0	0.1992542744	-3.729091883	-3.178891182	1.0
145	36	0	0	0.2251022607	-3.679571867	-3.579215527	1.0
146	36	0	0	0.203729108	-3.720591307	-3.247772217	1.0
147	36	0	0	0.1485235989	-3.82384491	-2.408646584	1.0
[LeftHandPinky3]
144	21.14200211	0	0	-0.05674261227	0.8822092414	-7.358913898	1.0
145	21.14200211	0	0	-0.07457371056	1.010917664	-8.439996719	1.0
146	21.14200211	0	0	-0.09681702405	1.150763035	-9.618273735	1.0
147	21.14200211	0	0	-0.1064840406	1.20648849	-10.08897686	1.0
[LeftHandPinky4]
144	19.75699997	0	0	0	0	0	1.0
145	19.75699997	0	0	0	0	0	1.0
146	19.75699997	0	0	0	0	0	1.0
147	19.75699997	0	0	0	0	0	1.0
[RightShoulder]
144	-45.70000076	109.4620056	-26.28000069	0.1259993017	-5.328290939	-17.5351162	1.0
145	-45.70000076	109.4620056	-26.28000069	0.09015448391	-4.980618954	-16.62444305	1.0
146	-45.70000076	109.4620056	-26.28000069	0.04064641148	-4.066578388	-17.89775085	1.0
147	-45.70000076	109.4620056	-26.28000069	-0.05332842842	-2.784491301	-18.12892151	1.0
[RightArm]
144	-105.9280014	-5.248000145	-22.32099915	-40.91690063	-10.79199982	-13.14005661	1.0
145	-105.9280014	-5.248000145	-22.32099915	-36.07806015	-6.831336498	-17.5800705	1.0
146	-105.9280014	-5.248000145	-22.32099915	-32.60172653	-4.118826389	-16.57618713	1.0
147	-105.9280014	-5.248000145	-22.32099915	-30.12458229	-2.027547121	-14.8276844	1.0
[RightForeArm]
144	-278.414978	0	0	-1.890210569e-06	46.17292404	3.33214598e-06	1.0
145	-278.414978	0	0	1.91250947e-05	45.19546127	2.808251338e-05	1.0
146	-278.414978	0	0	3.443652304e-06	43.46362305	-1.368575909e-06	1.0
147	-278.414978	0	0	-6.612498282e-08	41.14511108	2.832045084e-06	1.0
[RightHand]
144	-283.2879944	0	0.0009999999311	4.136785984	10.4549799	-14.19880962	1.0
145	-283.2879944	0	0.0009999999311	9.631128311	10.7028017	-10.69059849	1.0
146	-283.2879944	0	0.0009999999311	13.60864544	10.3635664	-7.84239912	1.0
147	-283.2879944	0	0.0009999999311	16.21790314	9.84885788	-6.346618652	1.0
[RightHandPinky1]
144	-80.76699829	-4.885000229	-38.06000137	-1.278757215	-16.75863266	37.19579697	1.0
145	-80.76699829	-4.885000229	-38.06000137	-1.345737338	-16.8248291	38.07553864	1.0
146	-80.76699829	-4.885000229	-38.06000137	-1.320996404	-17.07706451	37.82898712	1.0
147	-80.76699829	-4.885000229	-38.06000137	-1.208575964	-17.46584511	36.48452377	1.0
[RightHandPinky2]
144	-36	0	0.0009999999311	-0.9633194208	-3.528789282	30.54275131	1.0
145	-36	0	0.0009999999311	-0.9340473413	-3.478769541	30.06376457	1.0
146	-36	0	0.0009999999311	-0.8529772758	-3.334954023	28.69955254	1.0
147	-36	0	0.0009999999311	-0.7422248125	-3.12438488	26.7340126	1.0
[RightHandPinky3]
144	-21.14200211	0	0	-0.002930824179	0.2019210756	-1.663539529	1.0
145	-21.14200211	0	0	-0.003201148938	0.2110831141	-1.739104748	1.0
146	-21.14200211	0	0	-0.003401791677	0.2175721824	-1.792552948	1.0
147	-21.14200211	0	0	-0.003646301571	0.2251660973	-1.855155349	1.0
[RightHandPinky4]
144	-19.75699997	0	0	0	0	0	1.0
145	-19.75699997	0	0	0	0	0	1.0
146	-19.75699997	0	0	0	0	0	1.0
147	-19.75699997	0	0	0	0	0	1.0
[RightHandRing1]
144	-91.03599548	-0.4390000105	-18.65100098	-0.3871134818	-8.399479866	20.08280182	1.0
145	-91.03599548	-0.4390000105	-18.65100098	-0.4321796298	-8.408099174	21.1049099	1.0
146	-91.03599548	-0.4390000105	-18.65100098	-0.4264984131	-8.386356354	20.9729557	1.0
147	-91.03599548	-0.4390000105	-18.65100098	-0.377976656	-8.341100693	19.85317993	1.0
[RightHandRing2]
144	-31.54000092	0	0	-0.2118613869	-1.703290701	14.17932796	1.0
145	-31.54000092	0	0	-0.1624195725	-1.494134426	12.40752602	1.0
146	-31.54000092	0	0	-0.137633428	-1.376688719	11.41811943	1.0
147	-31.54000092	0	0	-0.1251072884	-1.313150764	10.88439655	1.0
[RightHandRing3]
144	-29.37700081	0	0	1.896175265	-0.6116043925	5.047204018	1.0
145	-29.37700081	0	0	1.506084204	-0.360845089	2.974700689	1.0
146	-29.37700081	0	0	1.476142406	-0.2335675359	1.924162149	1.0
147	-29.37700081	0	0	1.729757071	-0.1949535757	1.606063247	1.0
[RightHandRing4]
144	-26.47500038	0	0	0	0	0	1.0
145	-26.47500038	0	0	0	0	0	1.0
146	-26.47500038	0	0	0	0	0	1.0
147	-26.47500038	0	0	0	0	0	1.0
[RightHandMiddle1]
144	-95.32500458	0	0	-0.08538851142	-1.839665651	9.013262749	1.0
145	-95.32500458	0	0	-0.1111654341	-1.766316414	10.26977253	1.0
146	-95.32500458	0	0	-0.1117752641	-1.473118067	10.29118156	1.0
147	-95.32500458	0	0	-0.09421046078	-1.030106187	9.446512222	1.0
[RightHandMiddle2]
144	-36.98199844	0	0	-0.4004573226	-2.325201273	19.54107094	1.0
145	-36.98199844	0	0	-0.2728565037	-1.928605556	16.10414314	1.0
146	-36.98199844	0	0	-0.2446464598	-1.82811904	15.24352932	1.0
147	-36.98199844	0	0	-0.2670830786	-1.908504009	15.93173218	1.0
[RightHandMiddle3]
144	-29.50900078	0	0	1.633862972	-1.303582788	10.79228783	1.0
145	-29.50900078	0	0	1.289553046	-0.7627375722	6.28126049	1.0
146	-29.50900078	0	0	1.264758706	-0.5124514699	4.208185196	1.0
147	-29.50900078	0	0	1.539256334	-0.4758116305	3.906063318	1.0
[RightHandMiddle4]
144	-28.3390007	0	0.0009999999311	0	0	0	1.0
145	-28.3390007	0	0.0009999999311	0	0	0	1.0
146	-28.3390007	0	0.0009999999311	0	0	0	1.0
147	-28.3390007	0	0.0009999999311	0	0	0	1.0
[RightHandIndex1]
144	-91.08300018	-5.167999744	22.60099792	0.008095214143	3.877979279	3.171957254	1.0
145	-91.08300018	-5.167999744	22.60099792	-0.002407472814	4.064982891	4.849700451	1.0
146	-91.08300018	-5.167999744	22.60099792	0.002546883887	4.690440655	5.040829182	1.0
147	-91.08300018	-5.167999744	22.60099792	0.01924209297	5.608317852	4.381767273	1.0
[RightHandIndex2]
144	-36.76399994	0	0	-0.9674766064	-3.535819769	30.59708786	1.0
145	-36.76399994	0	0	-0.6175826192	-2.863731623	24.33483124	1.0
146	-36.76399994	0	0	-0.5703108907	-2.7569561	23.37071609	1.0
147	-36.76399994	0	0	-0.6821445227	-3.002219677	25.59654999	1.0
[RightHandIndex3]
144	-28.83100128	0	0	-0.1897527874	-1.613333464	13.41563225	1.0
145	-28.83100128	0	0	-0.04570031911	-0.7960221171	6.572097778	1.0
146	-28.83100128	0	0	-0.01077031065	-0.3869183362	3.188935041	1.0
147	-28.83100128	0	0	-0.006329755299	-0.296777904	2.445478201	1.0
[RightHandIndex4]
144	-23.92700005	0	0	0	0	0	1.0
145	-23.92700005	0	0	0	0	0	1.0
146	-23.92700005	0	0	0	0	0	1.0
147	-23.92700005	0	0	0	0	0	1.0
[RightHandThumb1]
144	-24.64799881	-15.72700024	26.82600021	9.660941124	-17.63009071	-14.21984005	1.0
145	-24.64799881	-15.72700024	26.82600021	9.591535568	-17.40732574	-13.6420784	1.0
146	-24.64799881	-15.72700024	26.82600021	9.478748322	-17.11031151	-12.94701767	1.0
147	-24.64799881	-15.72700024	26.82600021	9.399970055	-16.83429909	-12.27633381	1.0
[RightHandThumb2]
144	-32.29800034	-18.64699936	18.64699936	2.065036297	0.4795590937	1.203044772	1.0
145	-32.29800034	-18.64699936	18.64699936	2.065714359	0.3901788294	1.50614965	1.0
146	-32.29800034	-18.64699936	18.64699936	2.064309835	0.3226504028	1.734932423	1.0
147	-32.29800034	-18.64699936	18.64699936	2.035148382	0.2693922222	1.802778125	1.0
[RightHandThumb3]
144	-26.52600098	-15.31399918	15.31399918	-3.723079205	4.176693439	-2.736119509	1.0
145	-26.52600098	-15.31399918	15.31399918	-3.380628347	3.444082499	-2.744802713	1.0
146	-26.52600098	-15.31399918	15.31399918	-3.149425745	2.963548899	-2.744403362	1.0
147	-26.52600098	-15.31399918	15.31399918	-3.072838783	2.802183628	-2.744446754	1.0
[RightHandThumb4]
144	-19.54599953	-11.28499985	11.28499985	0	0	0	1.0
145	-19.54599953	-11.28499985	11.28499985	0	0	0	1.0
146	-19.54599953	-11.28499985	11.28499985	0	0	0	1.0
147	-19.54599953	-11.28499985	11.28499985	0	0	0	1.0
[LeftUpLeg]
144	82.07800293	-67.51699829	-15.99599934	2.454545021	-20.43349838	0.07366758585	1.0
145	82.07800293	-67.51699829	-15.99599934	1.937356353	-21.43773079	7.90557909	1.0
146	82.07800293	-67.51699829	-15.99599934	-1.220494628	-17.14283371	15.24354649	1.0
147	82.07800293	-67.51699829	-15.99599934	-4.247809887	-7.524546146	21.83094788	1.0
[LeftLeg]
144	0	-443.7049866	2.845999956	40.46908951	-12.8237133	0.6942000389	1.0
145	0	-443.7049866	2.845999956	35.39397812	-14.07651901	1.718548179	1.0
146	0	-443.7049866	2.845999956	32.32052994	-13.86356449	2.329405308	1.0
147	0	-443.7049866	2.845999956	30.1762104	-13.60652733	2.875056505	1.0
[LeftFoot]
144	0	-444.2789917	-29.8219986	-31.38948441	-23.14678574	20.38179016	1.0
145	0	-444.2789917	-29.8219986	-23.04754829	-25.80415154	17.34727287	1.0
146	0	-444.2789917	-29.8219986	-15.14169407	-28.09247208	12.09600163	1.0
147	0	-444.2789917	-29.8219986	-10.40256023	-29.41273117	6.858780384	1.0
[LeftToeBase]
144	0	-87.28699493	107.1060028	-8.350579262	3.114580522e-07	2.54103702e-06	1.0
145	0	-87.28699493	107.1060028	-13.63337708	-0.4914351106	-2.666156054	1.0
146	0	-87.28699493	107.1060028	-17.05592155	-0.6349244118	-2.471865892	1.0
147	0	-87.28699493	107.1060028	-18.81356049	-1.080376625	-3.754842758	1.0
[RightUpLeg]
144	-82.07800293	-67.51699829	-15.99599934	-23.51367378	6.868565559	-5.677174091	1.0
145	-82.07800293	-67.51699829	-15.99599934	-19.0834198	5.520365715	-5.808441639	1.0
146	-82.07800293	-67.51699829	-15.99599934	-14.8039608	3.16318202	-6.453268051	1.0
147	-82.07800293	-67.51699829	-15.99599934	-12.63885975	4.701517105	-6.954324245	1.0
[RightLeg]
144	0	-443.7049866	2.861999989	61.98369598	-3.438580513	-9.21700573	1.0
145	0	-443.7049866	2.861999989	41.63908386	-6.149367809	-8.222916603	1.0
146	0	-443.7049866	2.861999989	23.58262825	-8.016337395	-6.363701344	1.0
147	0	-443.7049866	2.861999989	14.21104908	-8.853693008	-5.013939857	1.0
[RightFoot]
144	0	-444.2770081	-29.83799934	-12.20287704	-5.576333523	4.365073204	1.0
145	0	-444.2770081	-29.83799934	-7.889747143	-5.325893879	8.653040886	1.0
146	0	-444.2770081	-29.83799934	0.3461838663	-4.91170454	10.23838425	1.0
147	0	-444.2770081	-29.83799934	8.044551849	-5.672266006	10.81861496	1.0
[RightToeBase]
144	0	-87.28699493	107.1060028	5.420029163	2.243474955e-05	-1.061612602e-05	1.0
145	0	-87.28699493	107.1060028	7.898030758	-2.131848851e-05	2.315352049e-06	1.0
146	0	-87.28699493	107.1060028	7.122600079	-1.034025718e-05	-1.883576488e-06	1.0
147	0	-87.28699493	107.1060028	8.425174713	-1.708506898e-05	5.318133134e-08	1.0
[EndOfFile]
